<svg class="svg-icon" style="width: 1em; height: 1em;vertical-align: middle;fill: currentColor;overflow: hidden;" viewBox="0 0 1024 1024" version="1.1" xmlns="http://www.w3.org/2000/svg"><path d="M340.286662 952.370613c-59.243289-24.298406-112.484887-60.781318-156.818605-106.454544C99.393219 759.281943 47.392892 639.584794 47.392892 507.379773c0-132.185578 51.999304-251.881704 136.075165-338.51583C268.223393 81.539085 390.109394 37.876656 512.004605 37.876656c121.875768 0 243.770979 43.662429 328.515059 130.987287 84.074837 86.634126 136.085398 206.330252 136.085398 338.51583 0 132.205021-52.010561 251.90217-136.085398 338.536296-44.322461 45.673226-97.574293 82.156138-156.807349 106.454544-54.838979 22.481014-113.272833 33.751708-171.70771 33.751708C453.549262 986.122321 395.134851 974.851627 340.286662 952.370613L340.286662 952.370613zM512.004605 133.344984c-97.348142 0-194.697307 34.869159-262.374686 104.627942-40.293705 41.509393-71.363328 92.543719-89.771583 149.537781-5.083785 19.140942 1.695618 28.177759 20.318768 27.14115 61.065797-2.417049 192.657858-4.345981 219.687468-5.746888-23.215748 27.131941-37.287231 62.752206-37.287231 101.754498 0 42.514279 16.72287 81.018222 43.762713 108.881826 9.646708 9.951653 20.623713 18.540262 32.616862 25.465998 22.596647 13.078877 47.812959 19.618826 73.048713 19.629059 25.225521-0.010233 50.442856-6.54916 73.03848-19.629059 11.993149-6.925736 22.959921-15.514345 32.616862-25.465998 27.039843-27.863604 43.762713-66.366523 43.762713-108.881826 0-39.001269-14.081717-74.622558-37.278022-101.754498 27.019377 1.401929 158.611437 3.329838 219.668025 5.746888 18.62315 1.035586 25.412786-8.001231 20.318768-27.14115-18.398022-56.995085-49.469692-108.028389-89.772606-149.537781C706.682469 168.214143 609.343537 133.344984 512.004605 133.344984L512.004605 133.344984zM595.843058 424.420339c-43.26027-44.576241-124.438127-44.576241-167.697373 0-21.451568 22.106484-34.725896 52.658314-34.725896 86.391602 0 33.751708 13.274328 64.295352 34.725896 86.410022 8.268314 8.508791 17.736966 15.780405 28.14399 21.48636 34.567283 18.98847 76.852342 18.98847 111.419625 0 10.395768-5.705955 19.875676-12.977569 28.133757-21.48636 21.461801-22.11467 34.734082-52.658314 34.734082-86.410022C630.578164 477.079676 617.304859 446.526823 595.843058 424.420339L595.843058 424.420339zM533.525758 555.936675c16.220427-8.205892 27.384697-25.405623 27.384697-45.277206 0-21.059642-12.544711-39.1036-30.350239-46.638203-11.785417-4.985548-25.335015-4.985548-37.120432 0-17.805528 7.534604-30.350239 25.578562-30.350239 46.638203 0 19.87056 11.155061 37.071314 27.374464 45.277206C503.904113 562.719148 520.105097 562.719148 533.525758 555.936675L533.525758 555.936675zM589.004303 882.388748c71.560826-15.556301 135.524626-52.364625 185.355545-103.715153 52.05968-53.642734 88.707344-123.147738 102.561887-200.86682 4.986571-21.080108-3.814886-27.53717-19.234063-27.02961-31.100322-0.680499-62.210877-0.548492-91.861174 5.209652-105.635899 20.521383-143.416364 73.048713-162.110121 193.972806C596.92674 793.885042 592.610434 845.285712 589.004303 882.388748L589.004303 882.388748zM434.984441 882.388748c-3.596921-37.103036-7.922437-88.503706-14.70184-132.429125-18.693758-120.924093-56.483432-173.451424-162.120354-193.972806-29.641087-5.758144-60.760852-5.89015-91.860151-5.209652-15.412015-0.50756-24.220634 5.949502-19.224854 27.02961 13.845333 77.719082 50.503231 147.224086 102.551654 200.86682C299.470047 830.024124 363.423615 866.832448 434.984441 882.388748z"  /></svg>